<svg width="21" height="16" viewBox="0 0 21 16" fill="none" xmlns="http://www.w3.org/2000/svg">
<path d="M0 6.73684C0 3.01619 3.13401 0 7 0H21V0.842105C21 4.56276 17.866 7.57895 14 7.57895H0V6.73684Z" fill="#FA9F42"/>
<path d="M0 13.4737C0 11.1483 1.95875 9.26316 4.375 9.26316H5.25C7.183 9.26316 8.75 10.7713 8.75 12.6316C8.75 14.4919 7.183 16 5.25 16H0V13.4737Z" fill="#FA9F42"/>
<path d="M12.25 13.4737C12.25 11.1483 14.2088 9.26316 16.625 9.26316H17.5C19.433 9.26316 21 10.7713 21 12.6316C21 14.4919 19.433 16 17.5 16H12.25V13.4737Z" fill="#FA9F42"/>
</svg>
